# xmcd
#
# Track frame offsets:
#	150
#	19410
#	34015
#	46781
#	73316
#	83899
#	92512
#	103373
#	120202
#	137494
#	150540
#	161129
#	176712
#	202107
#	212129
#	228079
#	251464
#
# Disc length: 3649 seconds
#
# Revision: 0
# Processed by: cddbd v1.5.2PL0 Copyright (c) Steve Scherf et al.
# Submitted via: audiograbber 1.83.01
#
DISCID=e40e3f11
DTITLE=Various Artist - Schrammel.Klang.Festival 2010 CD2
DYEAR=2010
DGENRE=Schrammel
TTITLE0=Steinberg and Havlicek - Botox Walzer
TTITLE1=bratfisch - Lagunenreggae
TTITLE2=Herbert Bäuml - An alter Weana
TTITLE3=Lepschi - Lukrezia
TTITLE4=Neue Wiener Concert Schrammeln - Auf die Zechn Tanz
TTITLE5=Natascha Gundacker and Joachim Berger - Ein Baum, der kann gehen
TTITLE6=Monika and Peter Hana - Kinder von Wien
TTITLE7=Sterzinger experience - I bin in Wien
TTITLE8=Streichquartett Netnakisum - Briefmark
TTITLE9=Franz Horacek - Zur Liebe gehört ein Glas Wein
TTITLE10=Roland Sulzer - s´Brunnstangl
TTITLE11=Transatlantik Schrammeln - Fiaker-Hetz Marsch
TTITLE12=Rupert Huber - Suzuki Piano Live
TTITLE13=Peter Ratzenbeck - Welfenstein
TTITLE14=Robert Kolar and Manfred Schiebel - Ja, da wär´s halt gut wenn man Engli
TTITLE14=sch könnt
TTITLE15=Sax Magic Quartett de Santiago de Cuba - Mambo Mania
TTITLE16=Kollegium Kalksburg - Das Letzte
EXTD=
EXTT0=
EXTT1=
EXTT2=
EXTT3=
EXTT4=
EXTT5=
EXTT6=
EXTT7=
EXTT8=
EXTT9=
EXTT10=
EXTT11=
EXTT12=
EXTT13=
EXTT14=
EXTT15=
EXTT16=
PLAYORDER=
